<?xml version="1.0" encoding="UTF-8"?><svg xmlns="http://www.w3.org/2000/svg" height="16" width="16"><path d="M8.023 15.993v-1.597l-4.342-4.133h2.02V3.007l2.319-.008-.012-2.99C5.294-.069 2.705 1.493 1.2 3.7-.122 5.692-.294 8.289.364 10.545c.642 2.013 2.164 3.732 4.066 4.644 1.12.524 2.353.83 3.593.805z"/><path d="M8.023 15.992v-1.597l4.315-4.132H10.32V3.006l-2.3-.008-.01-2.99c1.638-.035 3.246.555 4.608 1.438 1.054.762 1.908 1.796 2.533 2.933 1.026 1.971 1.105 4.38.373 6.461-.685 1.795-2.076 3.294-3.749 4.219-1.15.593-2.452.953-3.75.933z"/></svg>