<?xml version="1.0" encoding="UTF-8"?><svg xmlns="http://www.w3.org/2000/svg" height="16" width="16"><path d="M8.023.008v1.597L3.681 5.738h2.02v7.256l2.319.008-.012 2.99c-2.714.078-5.303-1.484-6.808-3.69C-.122 10.31-.294 7.712.364 5.456 1.006 3.444 2.528 1.725 4.43.813 5.55.29 6.783-.017 8.023.008z" fill="#fff"/><path d="M8.023.008v1.597l4.315 4.133H10.32v7.256l-2.3.008-.01 2.99c1.638.036 3.246-.554 4.608-1.438 1.054-.762 1.908-1.796 2.533-2.932 1.026-1.971 1.105-4.38.373-6.462-.685-1.794-2.076-3.293-3.749-4.218-1.15-.594-2.452-.954-3.75-.934z" fill="#fff"/></svg>